<?xml version="1.0" standalone="no"?>
<!DOCTYPE svg PUBLIC "-//W3C//DTD SVG 20010904//EN"
 "http://www.w3.org/TR/2001/REC-SVG-20010904/DTD/svg10.dtd">
<svg version="1.0" xmlns="http://www.w3.org/2000/svg"
 width="512.000000pt" height="512.000000pt" viewBox="0 0 512.000000 512.000000"
 preserveAspectRatio="xMidYMid meet">

<g transform="translate(0.000000,512.000000) scale(0.100000,-0.100000)"
fill="#000000" stroke="none">
<path d="M2420 5074 c-247 -53 -451 -225 -539 -454 -115 -298 -27 -632 219
-836 71 -58 215 -128 307 -148 92 -20 224 -20 316 0 92 20 236 90 307 148 113
94 196 219 242 366 19 64 23 95 22 210 0 117 -4 145 -26 212 -69 207 -231 384
-424 462 -131 53 -293 69 -424 40z m300 -160 c73 -21 174 -75 231 -124 64 -54
134 -161 166 -250 33 -96 37 -251 9 -345 -85 -285 -375 -467 -661 -414 -79 15
-120 37 -184 100 -181 182 -244 433 -167 674 14 44 39 104 56 133 42 72 152
186 204 212 85 40 229 46 346 14z"/>
<path d="M2492 4749 c-154 -30 -299 -172 -318 -312 -6 -40 -3 -49 19 -71 14
-14 33 -26 42 -26 10 0 15 -10 15 -34 0 -18 13 -59 29 -91 27 -53 28 -61 15
-79 -23 -33 -17 -57 25 -97 58 -55 137 -82 241 -83 102 -1 168 19 241 74 112
84 164 190 163 330 0 74 -4 95 -31 153 -59 125 -170 212 -302 237 -61 11 -78
11 -139 -1z"/>
<path d="M4380 4497 c-32 -16 -47 -58 -34 -94 11 -32 45 -46 147 -61 198 -30
380 -189 442 -385 71 -225 20 -435 -144 -597 -153 -150 -348 -203 -557 -150
-246 63 -434 307 -434 565 0 179 102 374 246 470 90 60 104 75 104 110 0 38
-35 75 -71 75 -72 0 -265 -170 -334 -293 -119 -215 -126 -476 -19 -689 130
-257 373 -408 659 -408 521 0 876 528 680 1012 -63 155 -198 299 -349 373
-132 65 -286 98 -336 72z"/>
<path d="M635 4491 c-385 -62 -655 -391 -632 -771 24 -393 339 -690 732 -690
287 0 531 151 660 408 84 167 98 379 38 555 -43 122 -85 188 -183 288 -71 72
-100 93 -180 132 -52 26 -121 54 -154 62 -73 18 -215 26 -281 16z m255 -168
c151 -41 294 -156 363 -294 119 -236 73 -507 -117 -686 -85 -81 -148 -117
-252 -143 -308 -79 -619 98 -710 405 -24 81 -24 229 0 310 57 191 206 346 388
404 93 30 227 32 328 4z"/>
<path d="M597 4136 c-148 -62 -233 -166 -256 -313 -21 -133 25 -260 128 -355
235 -218 610 -84 663 235 28 167 -68 346 -227 422 -50 24 -75 29 -155 32 -83
3 -102 1 -153 -21z m250 -155 c184 -93 173 -369 -17 -449 -60 -25 -149 -19
-210 14 -195 106 -165 385 50 455 40 13 133 3 177 -20z"/>
<path d="M4263 4156 c-184 -60 -306 -256 -275 -443 43 -257 300 -405 546 -313
118 45 224 179 246 312 27 169 -68 348 -225 423 -51 24 -75 29 -155 32 -61 2
-110 -2 -137 -11z m233 -164 c179 -92 178 -350 -2 -438 -46 -22 -64 -26 -123
-22 -277 15 -318 392 -51 479 40 13 133 3 176 -19z"/>
<path d="M2535 3433 c-12 -2 -32 -14 -47 -26 -42 -36 -358 -476 -365 -508 -8
-39 14 -87 48 -104 17 -9 57 -15 104 -15 l75 0 0 -70 c0 -66 2 -73 34 -108
l34 -37 146 0 146 0 32 33 c30 29 33 39 38 105 l5 72 79 3 c48 2 87 9 101 18
30 20 49 67 42 104 -7 32 -344 498 -374 516 -23 14 -72 23 -98 17z m165 -348
l109 -150 -62 -6 c-34 -3 -69 -9 -78 -13 -27 -12 -39 -53 -39 -131 l0 -75 -65
0 -65 0 0 75 c0 119 -22 145 -126 145 l-56 0 38 53 c191 261 206 280 220 265
8 -8 63 -81 124 -163z"/>
<path d="M1300 3042 c-66 -33 -68 -43 -76 -383 l-7 -305 29 -33 c47 -52 85
-51 169 3 l69 45 34 -47 c53 -76 112 -98 173 -66 61 31 195 132 206 155 26 52
20 97 -22 157 l-34 51 52 37 c72 52 87 72 87 121 0 75 -13 82 -329 188 -156
52 -291 95 -300 95 -9 0 -32 -8 -51 -18z m470 -280 c3 -2 -6 -12 -20 -21 -59
-39 -90 -73 -90 -100 0 -16 19 -53 45 -91 25 -35 45 -66 45 -69 0 -7 -93 -71
-102 -71 -4 0 -28 29 -53 64 -64 90 -86 96 -167 41 -29 -19 -53 -33 -55 -31
-2 2 -1 96 3 209 l7 205 191 -66 c105 -36 193 -67 196 -70z"/>
<path d="M3475 2965 c-312 -105 -325 -113 -325 -188 0 -49 15 -69 87 -121 l52
-37 -34 -51 c-34 -49 -39 -67 -35 -118 3 -42 17 -57 104 -119 100 -71 137 -91
168 -91 38 0 85 32 120 82 l34 47 69 -45 c84 -54 122 -55 169 -3 l29 33 -7
305 c-8 325 -11 344 -60 376 -51 34 -80 28 -371 -70z m283 -438 l-3 -47 -52
35 c-83 56 -105 49 -175 -51 l-43 -61 -31 21 c-16 11 -41 29 -54 38 l-24 17
48 69 c61 89 60 111 -11 167 -28 22 -52 42 -52 45 -1 3 86 34 192 70 l192 65
8 -160 c4 -88 6 -181 5 -208z"/>
<path d="M2366 2384 c-229 -41 -440 -145 -599 -294 -59 -55 -67 -66 -67 -100
0 -45 24 -70 69 -70 25 0 48 14 107 65 134 118 264 187 433 233 84 22 115 25
256 25 142 0 171 -3 260 -26 365 -98 645 -379 742 -746 34 -127 38 -352 9
-476 -121 -518 -605 -866 -1121 -806 -686 79 -1108 788 -846 1420 17 41 31 87
31 102 0 51 -53 83 -105 63 -22 -9 -67 -101 -99 -204 -174 -550 80 -1150 598
-1412 458 -231 1010 -140 1371 226 337 343 435 833 256 1280 -126 315 -409
577 -732 679 -178 56 -393 72 -563 41z"/>
<path d="M2443 2061 c-343 -55 -614 -300 -704 -636 -30 -113 -30 -307 0 -420
27 -102 98 -243 161 -322 108 -135 284 -249 455 -294 112 -30 307 -30 420 0
301 79 533 311 616 616 34 122 31 318 -5 438 -36 120 -60 165 -93 173 -37 10
-76 -7 -91 -39 -12 -25 -10 -37 17 -112 41 -115 56 -229 41 -333 -49 -359
-335 -612 -691 -613 -121 0 -210 20 -318 73 -111 53 -248 186 -304 295 -156
301 -75 681 186 879 131 99 272 147 432 147 152 0 286 -43 424 -137 41 -28 61
-36 80 -31 56 13 81 85 43 123 -60 60 -197 132 -319 167 -97 28 -259 40 -350
26z"/>
<path d="M2515 1725 c-16 -15 -25 -36 -25 -54 0 -25 -7 -34 -37 -50 -79 -40
-123 -113 -123 -201 0 -119 63 -187 234 -251 76 -28 110 -69 103 -124 -13 -93
-110 -123 -214 -65 -29 17 -63 30 -76 30 -61 0 -90 -87 -44 -130 12 -12 52
-36 89 -53 63 -30 68 -34 68 -65 0 -40 38 -82 75 -82 39 0 75 41 75 87 0 35 4
40 49 65 86 47 131 130 131 241 0 72 -26 132 -74 175 -18 16 -77 46 -130 66
-53 21 -106 47 -117 59 -33 36 -24 89 22 112 39 21 59 19 113 -10 57 -30 76
-31 110 -4 19 15 26 30 26 55 0 41 -25 68 -86 95 -38 17 -44 24 -44 50 0 37
-39 79 -75 79 -14 0 -37 -11 -50 -25z"/>
</g>
</svg>
